<svg preserveAspectRatio="none" width="100%" height="100%" overflow="visible" style="display: block;" viewBox="0 0 12 12" fill="none" xmlns="http://www.w3.org/2000/svg">
<path id="Subtract" d="M5.89561 0.00642842C8.90731 -0.110832 11.786 1.38148 11.9916 4.04434C12.1798 6.48281 9.16289 6.50581 8.63909 6.3686C8.11531 6.23139 7.76082 5.52503 8.69292 5.38726C9.62511 5.24951 9.49714 4.23774 8.94394 3.90083C8.46614 3.60983 7.25877 3.56225 6.82853 4.59532C6.39837 5.6284 7.02237 6.84632 7.99803 8.66438C8.80144 10.1615 8.37018 11.0055 7.80046 11.5141C7.23072 12.0228 6.17435 12.1244 5.3917 11.855C4.60914 11.5855 4.02808 10.5407 4.36486 9.53438C4.70169 8.52803 5.17008 8.03751 4.81126 7.34818C4.50397 6.75786 3.67359 6.97139 3.06408 7.0747C2.45458 7.17802 -0.234448 7.10912 0.0164752 4.59532C0.267448 2.08151 2.88395 0.123717 5.89561 0.00642842ZM3.2688 4.03203C3.05073 4.5292 2.65363 4.93434 2.15002 5.17323C2.65363 5.41213 3.05073 5.81727 3.2688 6.31443L3.28693 6.35559L3.30504 6.31443C3.52308 5.81727 3.92023 5.41213 4.42381 5.17323C3.92023 4.93432 3.52308 4.52918 3.30504 4.03203L3.28693 3.99088L3.2688 4.03203ZM5.38824 1.35586C5.0603 2.10354 4.46304 2.71286 3.70567 3.07214C4.46302 3.43141 5.0603 4.0406 5.38824 4.78825L5.41552 4.85035L5.44261 4.78825C5.77055 4.04058 6.36798 3.43141 7.12535 3.07214C6.36798 2.71286 5.77055 2.10355 5.44261 1.35586L5.41552 1.29395L5.38824 1.35586Z" fill="var(--fill-0, #121212)"/>
</svg>
